<?xml version="1.0" standalone="no"?>
<!DOCTYPE svg PUBLIC "-//W3C//DTD SVG 20010904//EN"
 "http://www.w3.org/TR/2001/REC-SVG-20010904/DTD/svg10.dtd">
<svg version="1.0" xmlns="http://www.w3.org/2000/svg"
 width="3330.000000pt" height="1265.000000pt" viewBox="0 0 3330.000000 1265.000000"
 preserveAspectRatio="xMidYMid meet">

<g transform="translate(0.000000,1265.000000) scale(0.100000,-0.100000)"
fill="#000000" stroke="none">
<path d="M15440 12648 c-3 -3 -1247 -8 -2765 -12 -2857 -6 -6542 -25 -8075
-41 -267 -3 -730 -7 -1030 -10 -1070 -10 -1337 -20 -1630 -65 -623 -96 -1095
-324 -1413 -684 -142 -161 -279 -395 -378 -643 -60 -151 -100 -377 -114 -638
-3 -60 -8 -126 -10 -145 -19 -177 -26 -5659 -10 -8117 l5 -823 56 -142 c84
-214 154 -337 281 -489 340 -412 953 -719 1598 -803 476 -63 956 2 1395 186
199 83 385 194 685 406 158 112 202 139 210 128 6 -7 84 -153 174 -325 l165
-311 645 2 646 3 3 2997 2 2998 -1505 0 -1505 0 0 -915 0 -915 63 -1 c34 0 73
-2 87 -4 29 -4 294 -15 363 -15 l47 0 -1 -1072 c-2 -1241 -5 -1301 -76 -1396
-35 -47 -67 -59 -202 -78 -170 -23 -240 -12 -380 58 l-104 52 7 2115 c4 1164
9 2188 11 2276 2 88 6 428 10 755 13 1314 32 2140 56 2390 13 139 23 179 63
258 149 294 409 483 775 562 135 30 371 37 1416 45 391 3 951 8 1245 12 294 3
5867 9 12383 12 l11848 6 116 -65 c218 -123 361 -264 403 -399 31 -98 38 -342
44 -1476 4 -550 8 -1072 11 -1160 2 -88 5 -275 6 -415 0 -140 5 -451 9 -690 5
-239 11 -597 14 -795 9 -525 18 -920 21 -923 2 -2 205 108 451 244 481 264
723 397 1064 585 118 64 312 171 430 236 l215 119 6 249 c10 422 24 2452 24
3550 0 1089 -5 1246 -45 1440 -114 551 -427 1014 -895 1321 -311 204 -692 338
-1065 374 -136 13 -523 37 -715 45 -82 3 -188 8 -235 10 -47 2 -161 7 -255 10
-93 3 -231 7 -305 10 -74 3 -225 7 -335 10 -110 3 -276 7 -370 10 -93 3 -296
7 -450 10 -154 3 -368 7 -475 10 -107 3 -377 7 -600 10 -223 3 -513 7 -645 10
-132 2 -519 7 -860 10 -341 3 -717 7 -835 10 -118 3 -735 7 -1370 10 -635 3
-1292 7 -1460 10 -426 7 -6934 19 -6940 13z"/>
<path d="M8869 10026 c-2 -2 -56 -6 -119 -10 -781 -45 -1469 -305 -1868 -706
-177 -178 -321 -427 -382 -658 -23 -86 -46 -264 -55 -417 -3 -55 -8 -127 -11
-160 -2 -33 -9 -400 -15 -815 -11 -726 -6 -4495 6 -4935 2 -104 7 -280 10
-390 3 -110 8 -238 11 -285 15 -237 140 -547 312 -775 67 -88 235 -258 327
-330 317 -248 779 -437 1195 -489 398 -50 1183 -60 1655 -20 366 30 530 63
824 166 634 222 1020 578 1194 1098 43 130 66 261 76 450 5 80 9 619 10 1199
l1 1054 -562 -7 c-310 -3 -849 -9 -1198 -12 -349 -4 -636 -7 -636 -8 -1 0 -5
-163 -8 -361 -23 -1348 -46 -1908 -80 -1973 -50 -97 -216 -156 -369 -132 -106
16 -170 51 -269 148 l-88 86 0 1273 0 1273 1611 0 1612 0 -7 268 c-3 147 -9
951 -12 1787 -4 836 -10 1691 -13 1900 l-7 380 -84 170 c-128 260 -204 375
-345 523 -377 398 -1046 637 -1960 702 -132 9 -747 14 -756 6z m524 -1552 c30
-10 78 -43 137 -95 l90 -80 0 -1275 0 -1274 -396 0 -397 0 6 1088 c4 598 9
1103 11 1122 2 19 7 77 11 127 7 116 36 230 70 282 35 51 92 91 158 107 77 18
253 17 310 -2z"/>
<path d="M21289 10026 c-3 -3 -54 -6 -114 -7 -304 -6 -716 -72 -1025 -166
-605 -183 -1024 -503 -1252 -957 -66 -132 -127 -315 -138 -418 -9 -86 -16
-193 -25 -408 -38 -860 -46 -4983 -11 -5880 3 -74 8 -207 11 -295 12 -335 26
-428 92 -605 214 -574 664 -941 1418 -1159 342 -98 440 -106 1335 -106 884 0
944 5 1277 101 733 212 1187 576 1386 1114 40 108 72 225 86 320 35 232 51
1736 45 4115 -3 930 -6 1704 -9 1720 -2 17 -4 138 -5 270 -1 132 -6 350 -11
484 -7 205 -13 261 -34 347 -132 551 -538 975 -1184 1239 -471 192 -909 269
-1652 290 -102 3 -187 3 -190 1z m338 -1542 c63 -8 169 -66 242 -132 l64 -59
9 -1809 c8 -1854 7 -4095 -2 -4469 l-5 -210 -32 -68 c-81 -171 -249 -267 -418
-239 -104 17 -164 51 -265 148 l-92 88 5 3086 c3 1697 8 3114 11 3150 2 36 7
118 11 183 7 143 21 183 87 242 92 83 216 112 385 89z"/>
<path d="M28340 10015 c-399 -46 -592 -102 -902 -263 -92 -47 -171 -83 -175
-78 -4 4 -10 70 -11 147 l-4 139 -1215 0 -1214 0 5 -137 c3 -76 8 -239 11
-363 3 -124 8 -286 10 -360 3 -74 7 -292 10 -485 3 -192 7 -449 10 -570 3
-121 7 -398 10 -615 3 -217 7 -519 10 -670 3 -151 7 -450 10 -665 3 -214 7
-554 10 -755 6 -451 13 -1021 20 -1580 8 -718 15 -1222 20 -1525 3 -159 8
-501 11 -760 3 -258 7 -501 9 -540 1 -38 3 -121 4 -182 0 -62 5 -113 10 -113
14 0 399 228 1530 905 l803 480 -6 1735 c-3 954 -7 1832 -10 1950 -3 118 -8
577 -11 1020 -3 443 -8 963 -11 1155 l-6 350 67 72 c105 115 224 161 385 150
136 -9 253 -74 300 -167 36 -71 60 -248 75 -560 15 -319 19 -426 30 -895 3
-126 7 -322 10 -435 3 -113 7 -344 10 -515 3 -170 7 -402 10 -515 3 -113 7
-344 10 -515 3 -170 7 -389 10 -485 3 -96 7 -303 10 -460 3 -157 7 -352 10
-435 3 -82 7 -278 11 -435 6 -278 9 -348 18 -357 5 -5 206 110 816 469 80 47
397 236 705 420 308 184 593 354 633 378 l72 42 1 222 c1 121 3 253 4 291 2
65 8 342 20 1060 3 160 8 349 11 420 3 72 7 612 9 1200 6 1458 -8 1763 -85
1963 -158 410 -680 743 -1340 857 -133 23 -561 29 -730 10z"/>
<path d="M14850 10009 c-386 -34 -828 -147 -1145 -294 -378 -174 -698 -480
-861 -823 -82 -172 -158 -436 -178 -617 -30 -280 -36 -407 -40 -850 -9 -931
48 -1393 207 -1685 119 -220 330 -421 697 -664 268 -178 501 -314 1080 -633
548 -302 675 -382 816 -516 143 -135 216 -273 279 -524 65 -259 90 -538 89
-968 0 -373 -26 -553 -101 -705 -75 -154 -197 -237 -334 -227 -87 6 -150 36
-254 122 l-84 70 -1 205 c0 113 -2 295 -5 405 -2 110 -7 554 -11 988 l-7 787
-1208 0 -1209 0 1 -927 c2 -1107 9 -1339 50 -1608 37 -244 95 -400 223 -599
282 -436 724 -704 1411 -855 299 -65 469 -80 995 -88 691 -10 1048 24 1471
141 688 189 1172 583 1388 1128 77 196 95 324 110 818 25 760 22 1477 -5 1695
-32 257 -77 405 -193 632 -209 409 -441 608 -1141 978 -1327 701 -1695 988
-1799 1401 -17 67 -29 141 -56 344 -2 19 -7 73 -10 120 -3 47 -8 99 -11 115
-9 56 -4 560 6 645 26 213 121 370 267 442 123 60 258 36 356 -66 50 -51 115
-169 146 -266 27 -82 57 -268 70 -430 10 -130 7 -1091 -5 -1417 l-7 -183 1170
0 1170 0 6 358 c4 196 5 650 3 1007 -4 700 -11 822 -61 1071 -63 311 -192 557
-409 782 -379 391 -927 617 -1626 672 -74 6 -157 13 -185 16 -94 10 -960 13
-1065 3z"/>
</g>
</svg>
