<svg version="1.0" xmlns="http://www.w3.org/2000/svg" width="4440" height="1686.667" viewBox="0 0 3330 1265"><path d="M1544 .2c-.3.3-124.7.8-276.5 1.2C981.8 2 613.3 3.9 460 5.5c-26.7.3-73 .7-103 1-107 1-133.7 2-163 6.5-62.3 9.6-109.5 32.4-141.3 68.4-14.2 16.1-27.9 39.5-37.8 64.3-6 15.1-10 37.7-11.4 63.8-.3 6-.8 12.6-1 14.5-1.9 17.7-2.6 565.9-1 811.7L2 1118l5.6 14.2c8.4 21.4 15.4 33.7 28.1 48.9 34 41.2 95.3 71.9 159.8 80.3 47.6 6.3 95.6-.2 139.5-18.6 19.9-8.3 38.5-19.4 68.5-40.6 15.8-11.2 20.2-13.9 21-12.8.6.7 8.4 15.3 17.4 32.5l16.5 31.1 64.5-.2 64.6-.3.3-299.7.2-299.8H287v183l6.3.1c3.4 0 7.3.2 8.7.4 2.9.4 29.4 1.5 36.3 1.5h4.7l-.1 107.2c-.2 124.1-.5 130.1-7.6 139.6-3.5 4.7-6.7 5.9-20.2 7.8-17 2.3-24 1.2-38-5.8l-10.4-5.2.7-211.5c.4-116.4.9-218.8 1.1-227.6.2-8.8.6-42.8 1-75.5 1.3-131.4 3.2-214 5.6-239 1.3-13.9 2.3-17.9 6.3-25.8 14.9-29.4 40.9-48.3 77.5-56.2 13.5-3 37.1-3.7 141.6-4.5 39.1-.3 95.1-.8 124.5-1.2 29.4-.3 586.7-.9 1238.3-1.2l1184.8-.6 11.6 6.5c21.8 12.3 36.1 26.4 40.3 39.9 3.1 9.8 3.8 34.2 4.4 147.6.4 55 .8 107.2 1.1 116 .2 8.8.5 27.5.6 41.5 0 14 .5 45.1.9 69 .5 23.9 1.1 59.7 1.4 79.5.9 52.5 1.8 92 2.1 92.3.2.2 20.5-10.8 45.1-24.4 48.1-26.4 72.3-39.7 106.4-58.5 11.8-6.4 31.2-17.1 43-23.6l21.5-11.9.6-24.9c1-42.2 2.4-245.2 2.4-355 0-108.9-.5-124.6-4.5-144-11.4-55.1-42.7-101.4-89.5-132.1C3204.4 36 3166.3 22.6 3129 19c-13.6-1.3-52.3-3.7-71.5-4.5-8.2-.3-18.8-.8-23.5-1-4.7-.2-16.1-.7-25.5-1-9.3-.3-23.1-.7-30.5-1-7.4-.3-22.5-.7-33.5-1-11-.3-27.6-.7-37-1-9.3-.3-29.6-.7-45-1-15.4-.3-36.8-.7-47.5-1-10.7-.3-37.7-.7-60-1-22.3-.3-51.3-.7-64.5-1-13.2-.2-51.9-.7-86-1-34.1-.3-71.7-.7-83.5-1-11.8-.3-73.5-.7-137-1-63.5-.3-129.2-.7-146-1-42.6-.7-693.4-1.9-694-1.3z"/><path d="M886.9 262.4c-.2.2-5.6.6-11.9 1-78.1 4.5-146.9 30.5-186.8 70.6-17.7 17.8-32.1 42.7-38.2 65.8-2.3 8.6-4.6 26.4-5.5 41.7-.3 5.5-.8 12.7-1.1 16-.2 3.3-.9 40-1.5 81.5-1.1 72.6-.6 449.5.6 493.5.2 10.4.7 28 1 39 .3 11 .8 23.8 1.1 28.5 1.5 23.7 14 54.7 31.2 77.5 6.7 8.8 23.5 25.8 32.7 33 31.7 24.8 77.9 43.7 119.5 48.9 39.8 5 118.3 6 165.5 2 36.6-3 53-6.3 82.4-16.6 63.4-22.2 102-57.8 119.4-109.8 4.3-13 6.6-26.1 7.6-45 .5-8 .9-61.9 1-119.9l.1-105.4-56.2.7c-31 .3-84.9.9-119.8 1.2-34.9.4-63.6.7-63.6.8-.1 0-.5 16.3-.8 36.1-2.3 134.8-4.6 190.8-8 197.3-5 9.7-21.6 15.6-36.9 13.2-10.6-1.6-17-5.1-26.9-14.8l-8.8-8.6V836H1205.3l-.7-26.8c-.3-14.7-.9-95.1-1.2-178.7-.4-83.6-1-169.1-1.3-190l-.7-38-8.4-17c-12.8-26-20.4-37.5-34.5-52.3-37.7-39.8-104.6-63.7-196-70.2-13.2-.9-74.7-1.4-75.6-.6zm52.4 155.2c3 1 7.8 4.3 13.7 9.5l9 8V690H882.7l.6-108.8c.4-59.8.9-110.3 1.1-112.2.2-1.9.7-7.7 1.1-12.7.7-11.6 3.6-23 7-28.2 3.5-5.1 9.2-9.1 15.8-10.7 7.7-1.8 25.3-1.7 31 .2zM2128.9 262.4c-.3.3-5.4.6-11.4.7-30.4.6-71.6 7.2-102.5 16.6-60.5 18.3-102.4 50.3-125.2 95.7-6.6 13.2-12.7 31.5-13.8 41.8-.9 8.6-1.6 19.3-2.5 40.8-3.8 86-4.6 498.3-1.1 588 .3 7.4.8 20.7 1.1 29.5 1.2 33.5 2.6 42.8 9.2 60.5 21.4 57.4 66.4 94.1 141.8 115.9 34.2 9.8 44 10.6 133.5 10.6 88.4 0 94.4-.5 127.7-10.1 73.3-21.2 118.7-57.6 138.6-111.4 4-10.8 7.2-22.5 8.6-32 3.5-23.2 5.1-173.6 4.5-411.5-.3-93-.6-170.4-.9-172-.2-1.7-.4-13.8-.5-27-.1-13.2-.6-35-1.1-48.4-.7-20.5-1.3-26.1-3.4-34.7-13.2-55.1-53.8-97.5-118.4-123.9-47.1-19.2-90.9-26.9-165.2-29-10.2-.3-18.7-.3-19-.1zm33.8 154.2c6.3.8 16.9 6.6 24.2 13.2l6.4 5.9.9 180.9c.8 185.4.7 409.5-.2 446.9l-.5 21-3.2 6.8c-8.1 17.1-24.9 26.7-41.8 23.9-10.4-1.7-16.4-5.1-26.5-14.8l-9.2-8.8.5-308.6c.3-169.7.8-311.4 1.1-315 .2-3.6.7-11.8 1.1-18.3.7-14.3 2.1-18.3 8.7-24.2 9.2-8.3 21.6-11.2 38.5-8.9zM2834 263.5c-39.9 4.6-59.2 10.2-90.2 26.3-9.2 4.7-17.1 8.3-17.5 7.8-.4-.4-1-7-1.1-14.7l-.4-13.9h-242.9l.5 13.7c.3 7.6.8 23.9 1.1 36.3.3 12.4.8 28.6 1 36 .3 7.4.7 29.2 1 48.5.3 19.2.7 44.9 1 57 .3 12.1.7 39.8 1 61.5.3 21.7.7 51.9 1 67 .3 15.1.7 45 1 66.5.3 21.4.7 55.4 1 75.5.6 45.1 1.3 102.1 2 158 .8 71.8 1.5 122.2 2 152.5.3 15.9.8 50.1 1.1 76 .3 25.8.7 50.1.9 54 .1 3.8.3 12.1.4 18.2 0 6.2.5 11.3 1 11.3 1.4 0 39.9-22.8 153-90.5l80.3-48-.6-173.5c-.3-95.4-.7-183.2-1-195-.3-11.8-.8-57.7-1.1-102-.3-44.3-.8-96.3-1.1-115.5l-.6-35 6.7-7.2c10.5-11.5 22.4-16.1 38.5-15 13.6.9 25.3 7.4 30 16.7 3.6 7.1 6 24.8 7.5 56 1.5 31.9 1.9 42.6 3 89.5.3 12.6.7 32.2 1 43.5.3 11.3.7 34.4 1 51.5.3 17 .7 40.2 1 51.5.3 11.3.7 34.4 1 51.5.3 17 .7 38.9 1 48.5.3 9.6.7 30.3 1 46 .3 15.7.7 35.2 1 43.5.3 8.2.7 27.8 1.1 43.5.6 27.8.9 34.8 1.8 35.7.5.5 20.6-11 81.6-46.9 8-4.7 39.7-23.6 70.5-42 30.8-18.4 59.3-35.4 63.3-37.8l7.2-4.2.1-22.2c.1-12.1.3-25.3.4-29.1.2-6.5.8-34.2 2-106 .3-16 .8-34.9 1.1-42 .3-7.2.7-61.2.9-120 .6-145.8-.8-176.3-8.5-196.3-15.8-41-68-74.3-134-85.7-13.3-2.3-56.1-2.9-73-1zM1485 264.1c-38.6 3.4-82.8 14.7-114.5 29.4-37.8 17.4-69.8 48-86.1 82.3-8.2 17.2-15.8 43.6-17.8 61.7-3 28-3.6 40.7-4 85-.9 93.1 4.8 139.3 20.7 168.5 11.9 22 33 42.1 69.7 66.4 26.8 17.8 50.1 31.4 108 63.3 54.8 30.2 67.5 38.2 81.6 51.6 14.3 13.5 21.6 27.3 27.9 52.4 6.5 25.9 9 53.8 8.9 96.8 0 37.3-2.6 55.3-10.1 70.5-7.5 15.4-19.7 23.7-33.4 22.7-8.7-.6-15-3.6-25.4-12.2l-8.4-7-.1-20.5c0-11.3-.2-29.5-.5-40.5-.2-11-.7-55.4-1.1-98.8l-.7-78.7H1258l.1 92.7c.2 110.7.9 133.9 5 160.8 3.7 24.4 9.5 40 22.3 59.9 28.2 43.6 72.4 70.4 141.1 85.5 29.9 6.5 46.9 8 99.5 8.8 69.1 1 104.8-2.4 147.1-14.1 68.8-18.9 117.2-58.3 138.8-112.8 7.7-19.6 9.5-32.4 11-81.8 2.5-76 2.2-147.7-.5-169.5-3.2-25.7-7.7-40.5-19.3-63.2-20.9-40.9-44.1-60.8-114.1-97.8-132.7-70.1-169.5-98.8-179.9-140.1-1.7-6.7-2.9-14.1-5.6-34.4-.2-1.9-.7-7.3-1-12-.3-4.7-.8-9.9-1.1-11.5-.9-5.6-.4-56 .6-64.5 2.6-21.3 12.1-37 26.7-44.2 12.3-6 25.8-3.6 35.6 6.6 5 5.1 11.5 16.9 14.6 26.6 2.7 8.2 5.7 26.8 7 43 1 13 .7 109.1-.5 141.7l-.7 18.3h234l.6-35.8c.4-19.6.5-65 .3-100.7-.4-70-1.1-82.2-6.1-107.1-6.3-31.1-19.2-55.7-40.9-78.2-37.9-39.1-92.7-61.7-162.6-67.2-7.4-.6-15.7-1.3-18.5-1.6-9.4-1-96-1.3-106.5-.3z"/></svg>