<svg width="36" height="36" viewBox="0 0 48 48" fill="none" xmlns="http://www.w3.org/2000/svg" class="prefix__home__hand"><path d="M25.5 32.03l5.85 1.126 4.8-24.675c.3-1.65-.75-3.3-2.325-3.6-1.65-.3-3.226.825-3.526 2.475L25.5 32.03z" fill="#FFDD67"/><path d="M33.9 4.88c-.225-.075-.375-.075-.6-.075 1.35.525 2.1 1.95 1.8 3.45L30.3 32.93l1.05.225 4.8-24.675c.375-1.725-.675-3.3-2.25-3.6z" fill="#EBA352"/><path d="M19.5 32.78h7.05V5.555c0-2.025-1.576-3.75-3.526-3.75-1.875 0-3.524 1.65-3.524 3.75V32.78z" fill="#FFDD67"/><path d="M23.1 1.805c-.15 0-.376 0-.526.075 1.725.3 3 1.8 3 3.675v27.3h1.05v-27.3c0-2.1-1.575-3.75-3.524-3.75z" fill="#EBA352"/><path d="M15.75 32.705l6-1.575-6.525-24.825c-.45-1.725-2.175-2.775-3.825-2.4-1.65.45-2.626 2.175-2.176 3.9l6.525 24.9z" fill="#FFDD67"/><path d="M11.4 3.905l-.45.225c1.5-.075 2.85.9 3.3 2.475l6.524 24.825 1.05-.3-6.6-24.825c-.45-1.725-2.175-2.775-3.825-2.4z" fill="#EBA352"/><path d="M3 10.355c-1.426.675-1.876 2.475-1.126 3.975l9.9 19.725 5.025-2.55L6.9 11.78c-.75-1.5-2.475-2.1-3.9-1.425z" fill="#FFDD67"/><path d="M3 10.355c-.15.075-.3.15-.45.3 1.275-.375 2.7.3 3.375 1.65l9.9 19.725.975-.45-9.9-19.8c-.75-1.5-2.475-2.1-3.9-1.425z" fill="#EBA352"/><path d="M46.274 22.28c-1.2-2.325-4.95-2.175-8.775 2.025-2.7 2.925-3.225 3.9-5.925 3.825v-3.075S25.8 20.78 14.324 22.73c0 0-6.525.9-6.525 4.35 0 0-1.125 8.325 1.2 13.575 3.45 7.8 21.15 9.825 26.7-3.45 1.125-2.625 3.375-4.575 5.4-7.05 2.325-3 6.45-5.4 5.175-7.875z" fill="#FFDD67"/><path d="M46.275 22.28c-.225-.45-.526-.75-.9-1.05.075.075.15.15.15.3 1.275 2.55-2.85 4.875-5.325 7.875-2.026 2.475-4.276 4.425-5.4 7.05C30 47.93 16.05 47.93 10.2 42.68c5.325 6 20.325 6.6 25.35-5.475 1.125-2.625 3.375-4.575 5.4-7.05 2.474-3 6.6-5.4 5.325-7.875zm-13.95 5.85c-4.876-1.8-13.576 1.5-12.376 10.275 0-8.175 7.425-10.2 11.475-10.2.6-.075.9-.075.9-.075z" fill="#EBA352"/></svg>